<svg xmlns="http://www.w3.org/2000/svg" fill="none" viewBox="0 0 58 13"><path fill="#000" d="M4.152 12.144c-.61867 0-1.16267-.1387-1.632-.416-.45867-.2773-.80533-.656-1.04-1.136V12H.216V.719999h1.296V5.568c.224-.45867.57067-.82133 1.04-1.088.46933-.26667 1.00267-.4 1.6-.4.69333 0 1.296.16533 1.808.496.52267.32.92267.784 1.2 1.392.288.59733.432 1.312.432 2.144 0 .82133-.144 1.536-.432 2.144-.27733.5973-.67733 1.0613-1.2 1.392-.512.3307-1.11467.496-1.808.496Zm-.272-1.04c.72533 0 1.30667-.256 1.744-.768.43733-.52267.656-1.264.656-2.224 0-.97067-.21867-1.712-.656-2.224-.43733-.512-1.01867-.768-1.744-.768s-1.30667.256-1.744.768-.656 1.25333-.656 2.224c0 .96.21867 1.70133.656 2.224.43733.512 1.01867.768 1.744.768Zm6.6641.896V4.224h1.264v1.392c.416-.93867 1.2694-1.456 2.56-1.552l.464-.048.096 1.12-.816.096c-.736.064-1.296.29867-1.68.704-.384.39467-.576.93867-.576 1.632V12h-1.312Zm9.1043.144c-.5334 0-1.0134-.1013-1.44-.304-.416-.2133-.7467-.5013-.992-.864-.2454-.3627-.368-.768-.368-1.216 0-.56533.144-1.01333.432-1.344.2986-.33067.784-.56533 1.456-.704.6826-.14933 1.6106-.224 2.784-.224h.512v-.496c0-.66133-.1387-1.136-.416-1.424-.2667-.29867-.6987-.448-1.296-.448-.4694 0-.9227.06933-1.36.208-.4374.128-.8854.34133-1.344.64l-.448-.944c.4053-.288.896-.51733 1.472-.688.5866-.17067 1.1466-.256 1.68-.256 1.0026 0 1.744.24533 2.224.736.4906.49067.736 1.25333.736 2.288V12h-1.216v-1.344c-.2027.4587-.5174.8213-.944 1.088-.416.2667-.9067.4-1.472.4Zm.208-.976c.64 0 1.1626-.2187 1.568-.656.4053-.448.608-1.01333.608-1.696v-.48h-.496c-.864 0-1.5467.04267-2.048.128-.4907.07467-.8374.21333-1.04.416-.192.192-.288.45867-.288.8 0 .4373.1493.7947.448 1.072.3093.2773.7253.416 1.248.416Zm6.4924.832v-.864l4.448-5.904h-4.448V4.224h5.888v.864l-4.448 5.904h4.624V12h-6.064Zm8.5822-9.712V.832h1.6v1.456h-1.6Zm.16 9.712V4.224h1.296V12h-1.296Zm7.1028.144c-.7894 0-1.3867-.2293-1.792-.688-.3947-.4693-.592-1.1467-.592-2.032V.719999h1.296V9.328c0 1.1413.4533 1.712 1.36 1.712.2666 0 .5066-.032.72-.096l-.032 1.088c-.3307.0747-.6507.112-.96.112Zm5.7343 0c-.7893 0-1.3866-.2293-1.792-.688-.3946-.4693-.592-1.1467-.592-2.032V.719999h1.296V9.328c0 1.1413.4534 1.712 1.36 1.712.2667 0 .5067-.032.72-.096l-.032 1.088c-.3306.0747-.6506.112-.96.112Zm5.7984 0c-.5333 0-1.0133-.1013-1.44-.304-.416-.2133-.7467-.5013-.992-.864-.2453-.3627-.368-.768-.368-1.216 0-.56533.144-1.01333.432-1.344.2987-.33067.784-.56533 1.456-.704.6827-.14933 1.6107-.224 2.784-.224h.512v-.496c0-.66133-.1387-1.136-.416-1.424-.2667-.29867-.6987-.448-1.296-.448-.4693 0-.9227.06933-1.36.208-.4373.128-.8853.34133-1.344.64l-.448-.944c.4053-.288.896-.51733 1.472-.688.5867-.17067 1.1467-.256 1.68-.256 1.0027 0 1.744.24533 2.224.736.4907.49067.736 1.25333.736 2.288V12h-1.216v-1.344c-.2027.4587-.5173.8213-.944 1.088-.416.2667-.9067.4-1.472.4Zm.208-.976c.64 0 1.1627-.2187 1.568-.656.4053-.448.608-1.01333.608-1.696v-.48h-.496c-.864 0-1.5467.04267-2.048.128-.4907.07467-.8373.21333-1.04.416-.192.192-.288.45867-.288.8 0 .4373.1493.7947.448 1.072.3093.2773.7253.416 1.248.416Z"/></svg>